<?xml version="1.0" encoding="UTF-8" standalone="no"?>
<svg
   xmlns:dc="http://purl.org/dc/elements/1.1/"
   xmlns:cc="http://creativecommons.org/ns#"
   xmlns:rdf="http://www.w3.org/1999/02/22-rdf-syntax-ns#"
   xmlns:svg="http://www.w3.org/2000/svg"
   xmlns="http://www.w3.org/2000/svg"
   xmlns:sodipodi="http://sodipodi.sourceforge.net/DTD/sodipodi-0.dtd"
   xmlns:inkscape="http://www.inkscape.org/namespaces/inkscape"
   viewBox="0 0 700 700"
   height="700"
   width="700"
   xml:space="preserve"
   id="svg2"
   version="1.1"
   sodipodi:docname="ec-vitoria-logo.svg"
   inkscape:export-filename="G:\Users\suitedoalex\sites\ec-vitoria-logo-0.png"
   inkscape:export-xdpi="561.73712"
   inkscape:export-ydpi="561.73712"
   inkscape:version="0.92.4 (5da689c313, 2019-01-14)"><sodipodi:namedview
     pagecolor="#ffffff"
     bordercolor="#666666"
     borderopacity="1"
     objecttolerance="10"
     gridtolerance="10"
     guidetolerance="10"
     inkscape:pageopacity="0"
     inkscape:pageshadow="2"
     inkscape:window-width="1600"
     inkscape:window-height="837"
     id="namedview70"
     showgrid="false"
     inkscape:zoom="0.59187134"
     inkscape:cx="604.08607"
     inkscape:cy="192.32709"
     inkscape:window-x="-8"
     inkscape:window-y="-8"
     inkscape:window-maximized="1"
     inkscape:current-layer="svg2" /><metadata
     id="metadata8"><rdf:RDF><cc:Work
         rdf:about=""><dc:format>image/svg+xml</dc:format><dc:type
           rdf:resource="http://purl.org/dc/dcmitype/StillImage" /><dc:title></dc:title></cc:Work></rdf:RDF></metadata><defs
     id="defs6" /><g
     transform="matrix(0.92574403,0,0,-0.92574403,-1337.8106,696.51935)"
     id="g10"
     inkscape:export-filename="G:\Users\suitedoalex\sites\ec-vitoria-logo-4.png"
     inkscape:export-xdpi="85.527245"
     inkscape:export-ydpi="85.527245"><path
       id="path14"
       style="fill:#ffffff;fill-opacity:1;fill-rule:evenodd;stroke:none;stroke-width:4.32073069"
       d="m 1820.2382,100.70847 v 0 l -4.3553,2.17765 -0.9333,0.62219 v 0 0 l -5.2885,2.79983 v 0 c -97.6831,52.57465 -172.3453,144.65807 -205.9433,253.85158 v 0 l -7.1552,26.13178 c -7.1551,29.86489 -10.8882,60.35197 -10.8882,89.90577 v 0 c 0,8.08841 1.2444,29.5538 1.5554,32.35363 v 0 0 0.31109 l 0.3111,7.46623 15.8658,2.17765 c 75.5955,10.88824 144.3469,47.59717 205.3211,113.8599 l 14.3103,15.55463 14.3102,-15.24354 c 62.5296,-66.57382 130.0367,-103.28275 205.6322,-114.17099 v 0 l 15.5547,-2.17765 0.3111,-4.97749 0.3111,-2.48874 v -0.31109 0 c 0,0 0,-0.31109 0,-0.62218 v 0 c 0,-0.93328 0,-1.86656 0.311,-3.11093 0,-2.48874 0.3111,-5.91076 0.3111,-9.64387 v 0 c 0.3111,-7.46622 0.9333,-15.86573 0.9333,-20.53211 v 0 c 0,-28.93162 -3.422,-58.79651 -9.9549,-88.35031 v 0 l -6.8441,-26.13178 C 2009.6936,249.09965 1932.8538,155.77187 1832.993,103.50831 v 0 l -9.3328,-4.666393 z"
       inkscape:connector-curvature="0" /><path
       id="path16"
       style="fill:#ffffff;fill-opacity:1;fill-rule:evenodd;stroke:none;stroke-width:4.32073069"
       d="m 1817.1273,107.8636 -2.1777,-4.35529 2.1777,4.35529 0.6222,-0.31109 4.6664,-2.17765 1.2443,-0.93328 7.1552,3.73312 c 98.6163,51.33028 174.2118,143.72479 208.1209,253.54048 v 0 l 6.8441,25.5096 c 6.5329,29.2427 9.6438,58.7965 9.6438,87.41703 v 0 c 0,4.35529 -0.311,12.75479 -0.6221,20.22102 v 0 c -0.3111,3.42201 -0.3111,6.22185 -0.6222,8.71059 v 0 0 4.97748 l -0.3111,2.48874 v 0.93328 l -11.5104,1.55546 c -76.8399,10.88825 -145.5914,48.53045 -208.7432,115.41537 v 0 l -10.5771,11.51042 -10.5772,-11.51042 C 1750.8646,562.05883 1680.8687,524.41663 1604.0288,513.52838 v 0 l -11.5104,-1.55546 -0.3111,-3.11093 v -5.28857 h -0.3111 c -0.3111,-7.46622 -1.2443,-21.46539 -1.2443,-27.37615 v 0 c 0,-28.93162 3.7331,-59.1076 10.8882,-88.6614 v 0 l 6.844,-25.82069 c 33.598,-107.94914 107.327,-199.09928 203.4546,-251.05174 v 0 l 3.422,-1.55547 z m -1.2444,-4.35529 h -0.9333 z m 4.0442,-3.11093 0.3111,0.31109 z m 2.7999,-6.532946 -0.3111,-0.311092 -4.6664,2.488741 -4.3553,2.488741 h -0.3111 l -10.2661,5.288576 v 0.31109 c -96.4387,53.50793 -170.4787,145.59135 -204.0767,254.78486 v 0 l -7.1552,26.13178 c -7.1551,30.48708 -10.8882,61.28525 -10.8882,91.15014 v 0 c 0,8.3995 1.2444,29.86489 1.2444,32.66472 h 0.3111 v 4.97749 0 l 0.6221,6.84403 19.5989,2.79984 c 74.6622,10.88824 142.1693,46.97498 202.5213,112.30443 v 0 l 18.0434,19.59884 18.0433,-19.28774 c 61.9075,-65.95164 128.1702,-101.72729 202.5213,-112.61553 v 0 l 19.91,-2.79984 0.311,-4.0442 v -2.79983 0 l 0.3111,-4.97749 c 0,0 0,-0.31109 0,-0.62218 v 0 c 0,-0.93328 0.3111,-1.86656 0.3111,-3.11093 v 0 c 0,-2.48874 0.3111,-5.91076 0.3111,-9.64387 v 0 c 0.6222,-7.46622 0.9333,-16.17682 0.9333,-20.8432 v 0 c 0,-29.5538 -3.422,-59.72979 -10.2661,-89.59468 v 0 l -6.844,-26.13178 C 2014.0489,246.29982 1936.5869,152.03876 1835.4818,99.153009 v 0 l -11.5105,-5.91076 z"
       inkscape:connector-curvature="0" /><path
       id="path18"
       style="fill:#000000;fill-opacity:1;fill-rule:evenodd;stroke:none;stroke-width:4.32073069"
       d="m 1823.6602,112.2189 3.7332,2.17765 c 97.0608,50.397 171.7231,141.23605 205.01,249.49628 v 0 l 0.3111,0.62219 2.7998,9.64387 v 0 l 1.8666,7.46622 c 7.4662,31.10926 11.1993,62.52962 11.1993,92.7056 v 0 c 0,6.84404 -0.9333,24.88741 -1.2444,31.42036 v 0 l -5.9107,0.93328 c -78.7065,11.19933 -149.0134,49.77482 -212.7874,117.59301 v 0 l -5.5996,5.91076 -5.2886,-5.91076 C 1754.9088,556.45917 1683.6686,517.88368 1604.9621,506.68435 v 0 l -5.9107,-0.93328 c 0,-0.31109 0,-0.93328 -0.3111,-1.24437 h 0.3111 c -0.3111,-2.48874 -0.3111,-5.91076 -0.6222,-9.33278 v 0 c -0.3111,-7.15513 -0.6222,-15.24354 -0.6222,-18.97665 v 0 c 0,-30.79817 4.0442,-62.84071 12.1326,-94.57216 v 0 l 1.8666,-7.46622 v 0 l 3.1109,-10.26606 c 33.598,-108.26023 108.2602,-199.09928 205.01,-249.49628 v 0 l 0.3111,-0.31109 v 0 z m -3.422,-11.51043 v 0 l -4.3553,2.17765 -0.9333,0.62219 v 0 0 l -5.2885,2.79983 v 0 c -97.6831,52.57465 -172.3453,144.65807 -205.9433,253.85158 v 0 l -7.1552,26.13178 c -7.1551,29.86489 -10.8882,60.35197 -10.8882,89.90577 v 0 c 0,8.08841 1.2444,29.5538 1.5554,32.35363 v 0 0 0.31109 l 0.3111,7.46623 15.8658,2.17765 c 75.5955,10.88824 144.3469,47.59717 205.3211,113.8599 l 14.3103,15.55463 14.3102,-15.24354 c 62.5296,-66.57382 130.0367,-103.28275 205.6322,-114.17099 v 0 l 15.5547,-2.17765 0.3111,-4.97749 0.3111,-2.48874 v -0.31109 0 c 0,0 0,-0.31109 0,-0.62218 v 0 c 0,-0.93328 0,-1.86656 0.311,-3.11093 0,-2.48874 0.3111,-5.91076 0.3111,-9.64387 v 0 c 0.3111,-7.46622 0.9333,-15.86573 0.9333,-20.53211 v 0 c 0,-28.93162 -3.422,-58.79651 -9.9549,-88.35031 v 0 l -6.8441,-26.13178 C 2009.6936,249.09965 1932.8538,155.77187 1832.993,103.50831 v 0 l -9.3328,-4.666393 z"
       inkscape:connector-curvature="0" /><path
       id="path20"
       style="fill:#000000;fill-opacity:1;fill-rule:evenodd;stroke:none;stroke-width:4.32073069"
       d="m 2023.6928,366.69266 h -400.6873 l 0.3111,-0.62218 C 1655.9813,260.29899 1728.777,171.3265 1823.3491,122.17386 h 0.3111 0.3111 c 94.5722,49.46373 167.679,138.12513 200.3437,243.89662 v 0.62218 z"
       inkscape:connector-curvature="0" /><path
       id="path22"
       style="fill:#e40613;fill-opacity:1;fill-rule:evenodd;stroke:none;stroke-width:4.32073069"
       d="m 2024.315,366.07048 c 13.0659,44.17515 17.7323,90.21686 14.9324,132.52546 -79.9508,11.19933 -151.8132,50.7081 -216.2093,119.45957 -63.1518,-68.75147 -135.9475,-108.26024 -215.8983,-119.45957 -3.111,-42.3086 2.4887,-88.35031 16.1768,-132.52546 z"
       inkscape:connector-curvature="0" /><path
       id="path24"
       style="fill:#ffffff;fill-opacity:1;fill-rule:evenodd;stroke:none;stroke-width:4.32073069"
       d="m 1666.8696,483.66349 46.0417,23.95413 c -0.6222,-14.31026 0.9332,-31.73144 7.7773,-45.41952 l 44.4862,-96.74981 v -54.13011 l -66.5738,139.0584 c -6.844,13.06589 -20.5321,22.39867 -31.7314,33.28691 z"
       inkscape:connector-curvature="0" /><path
       id="path26"
       style="fill:#ffffff;fill-opacity:1;fill-rule:evenodd;stroke:none;stroke-width:4.32073069"
       d="m 1984.184,479.61929 -45.7306,23.64304 c 0.6222,-14.31026 -1.8665,-31.42036 -7.7773,-45.10843 l -71.8624,-161.76817 28.3094,4.04421 65.6406,145.59134 c 5.9107,13.06589 20.221,22.70977 31.4203,33.59801 z"
       inkscape:connector-curvature="0" /><path
       id="path28"
       style="fill:#ffffff;fill-opacity:1;fill-rule:evenodd;stroke:none;stroke-width:4.32073069"
       d="m 1761.1306,209.90198 h 41.0642 v 141.85824 h 42.9308 c 9.0217,0 14.3103,-11.19934 21.1543,-17.1101 l 0.3111,58.48542 c -7.1551,-5.59967 -11.8215,-15.55463 -20.8432,-15.55463 h -42.9308 l -0.6222,57.86322 -27.3761,-8.3995 V 232.92284 c 0,-8.7106 -9.0217,-15.24354 -13.6881,-23.02086 z"
       inkscape:connector-curvature="0" /><path
       id="path30"
       style="fill:#ffffff;fill-opacity:1;fill-rule:evenodd;stroke:none;stroke-width:4.32073069"
       d="m 1775.4409,470.5976 v 39.19767 c 0,9.02169 -8.3995,15.55463 -13.6881,22.70976 h 127.548 v -39.19767 c -9.955,6.53295 -18.3545,18.35447 -29.8649,18.35447 h -56.6189 v -35.77565 z"
       inkscape:connector-curvature="0" /><path
       id="path32"
       style="fill:#ffffff;fill-opacity:1;fill-rule:evenodd;stroke:none;stroke-width:4.32073069"
       d="m 1862.5468,209.2798 h 42.3086 v 39.19767 c -1.8665,-1.55547 -2.7998,-17.73228 -33.9091,-17.73228 z"
       inkscape:connector-curvature="0" /><path
       id="path34"
       style="fill:#ffffff;fill-opacity:1;fill-rule:evenodd;stroke:none;stroke-width:4.32073069"
       d="m 1811.8387,246.29982 v -38.88658 l 20.221,-39.81985 39.5088,88.66139 -24.5763,-0.62218 -17.7323,-45.10843 z"
       inkscape:connector-curvature="0" /><path
       id="path36"
       style="fill:#ffffff;fill-opacity:1;fill-rule:evenodd;stroke:none;stroke-width:4.32073069"
       d="m 1765.1748,300.42994 c -32.6647,14.31026 -63.1518,38.26439 -84.6172,65.64054 6.533,13.68807 19.5989,27.37615 31.1093,34.22019 l -13.0659,23.64304 c -16.1768,-11.82152 -33.598,-24.88741 -41.3753,-42.93078 -2.7998,-6.53295 -8.3995,-11.19934 -13.6881,-14.93245 5.2886,-2.79983 9.0217,-2.17765 14.3103,-9.95496 26.4428,-37.64221 66.2627,-66.88492 107.3269,-81.81736 0,9.95496 0,16.17681 0,26.13178 z"
       inkscape:connector-curvature="0" /><path
       id="path38"
       style="fill:#ffffff;fill-opacity:1;fill-rule:evenodd;stroke:none;stroke-width:4.32073069"
       d="m 1735.9321,448.51002 12.1326,-23.33194 c 54.7523,24.57632 108.5714,25.1985 158.0351,6.53294 l 9.6439,20.84321 c -53.8191,23.33195 -119.4596,21.46539 -179.8116,-4.04421 z"
       inkscape:connector-curvature="0" /><path
       id="path40"
       style="fill:#ffffff;fill-opacity:1;fill-rule:evenodd;stroke:none;stroke-width:4.32073069"
       d="m 1955.5635,432.33321 -9.0217,-20.84321 16.799,-8.3995 c 4.6664,-1.86655 6.533,-8.3995 9.6439,-12.4437 l 14.9324,32.66472 c -5.5996,0 -11.5104,-2.17765 -16.1768,0 z"
       inkscape:connector-curvature="0" /><path
       id="path42"
       style="fill:#ffffff;fill-opacity:1;fill-rule:evenodd;stroke:none;stroke-width:4.32073069"
       d="m 1811.2165,291.40825 v -22.39867 c 60.352,-13.37698 116.9709,4.66639 169.5455,35.77565 l -15.5546,23.02086 c -37.02,-31.42036 -100.1718,-46.97499 -153.9909,-36.39784 z"
       inkscape:connector-curvature="0" /></g></svg>